<svg width="45" height="49" viewBox="0 0 45 49" fill="none" xmlns="http://www.w3.org/2000/svg">
<path d="M21.4951 2.02713C20.1162 7.98169 17.5463 12.7036 13.4513 16.8195C10.1293 20.1624 6.18044 22.5651 1.96001 23.8396C0.184089 24.362 0.0796228 24.4246 0.0169432 25.0096C-0.0457364 25.6364 -0.0457364 25.6364 2.10626 26.1797C7.74743 27.6631 12.9707 31.5701 16.5852 36.9815C18.3612 39.614 20.2207 43.521 21.0773 46.3625L21.7877 48.6816H22.6443H23.5218L23.9814 47.0102C25.7783 40.4079 29.8315 34.4743 35.3891 30.2956C37.374 28.7913 41.4899 26.702 43.5375 26.1588C44.9791 25.7618 45 25.7618 45 25.0514C45 24.362 45 24.3411 42.848 23.5889C40.2364 22.6278 37.6247 21.2698 35.4518 19.7028C33.2789 18.1358 30.0614 14.772 28.4317 12.3693C26.217 9.13082 24.2531 4.63878 23.5427 1.25408C23.292 0.0422768 23.2711 0.000490434 22.6234 0.000490434H21.9548L21.4951 2.02713ZM23.083 4.84771C25.1097 11.053 29.3928 16.9867 34.6161 20.8519C36.204 22.0219 40.2781 24.2366 41.866 24.7798L42.4928 24.9888L41.6571 25.2604C41.1974 25.4275 39.9856 25.9707 38.941 26.4931C32.0462 29.9195 26.5513 36.0204 23.7516 43.333C23.292 44.503 22.8741 45.6103 22.7905 45.8193C22.6652 46.1118 22.3936 45.5686 21.725 43.8344C18.9044 36.5636 14.4332 30.8806 8.93834 27.5795C7.53849 26.7229 6.49383 26.2423 3.65236 25.1141C3.35985 24.9888 3.58968 24.8216 4.71791 24.3829C9.46067 22.5234 14.6004 18.4283 17.7553 13.9989C19.2805 11.8678 21.2235 8.02348 21.9966 5.55808C22.31 4.5761 22.6025 3.76127 22.6443 3.76127C22.6861 3.76127 22.8741 4.2627 23.083 4.84771Z" fill="white"/>
</svg>
