<svg width="43" height="36" viewBox="0 0 43 36" fill="none" xmlns="http://www.w3.org/2000/svg">
<path d="M9.57031 35.6445C6.64062 35.6445 4.29688 34.5703 2.53906 32.4219C0.846354 30.2083 0 27.6042 0 24.6094C0 22.1354 0.455729 19.8242 1.36719 17.6758C2.27865 15.5273 3.41797 13.5742 4.78516 11.8164C6.21745 10.0586 7.71484 8.52865 9.27734 7.22656C10.9049 5.85938 12.4023 4.72005 13.7695 3.80859C15.1367 2.83203 16.2435 2.11589 17.0898 1.66016C18.0013 1.20443 18.4245 0.976562 18.3594 0.976562L20.6055 4.00391C20.0195 4.26432 19.2383 4.78516 18.2617 5.56641C17.2852 6.28255 16.3086 7.16146 15.332 8.20312C14.4206 9.24479 13.6068 10.3841 12.8906 11.6211C12.1745 12.793 11.8164 13.9323 11.8164 15.0391C11.8164 15.6901 12.207 16.3411 12.9883 16.9922C13.7695 17.5781 14.6159 18.2943 15.5273 19.1406C16.4388 19.9219 17.2852 20.8984 18.0664 22.0703C18.8477 23.1771 19.2383 24.5443 19.2383 26.1719C19.2383 27.6042 18.9453 28.9062 18.3594 30.0781C17.8385 31.25 17.1224 32.2591 16.2109 33.1055C15.3646 33.8867 14.3555 34.5052 13.1836 34.9609C12.0117 35.4167 10.8073 35.6445 9.57031 35.6445ZM33.5938 35.8398C32.0964 35.8398 30.7292 35.5143 29.4922 34.8633C28.2552 34.2122 27.181 33.3333 26.2695 32.2266C25.3581 31.1198 24.6419 29.8503 24.1211 28.418C23.6654 26.9206 23.4375 25.3255 23.4375 23.6328C23.4375 20.2474 24.1536 17.1224 25.5859 14.2578C27.0833 11.3281 28.7109 8.82161 30.4688 6.73828C32.5521 4.26432 34.9284 2.01823 37.5977 0L40.4297 2.63672C39.8438 3.02734 39.1276 3.64583 38.2812 4.49219C37.5 5.33854 36.7513 6.34766 36.0352 7.51953C35.3841 8.6263 34.7982 9.79818 34.2773 11.0352C33.8216 12.2721 33.5938 13.4766 33.5938 14.6484C33.5938 15.4297 34.082 16.0807 35.0586 16.6016C36.0352 17.1224 37.1094 17.7734 38.2812 18.5547C39.4531 19.3359 40.5273 20.3451 41.5039 21.582C42.4805 22.7539 42.9688 24.4141 42.9688 26.5625C42.9688 27.8646 42.7083 29.069 42.1875 30.1758C41.6667 31.2826 40.9505 32.2591 40.0391 33.1055C39.1927 33.9518 38.1836 34.6354 37.0117 35.1562C35.9049 35.612 34.7656 35.8398 33.5938 35.8398Z" fill="#E2DDCD"/>
</svg>
