<svg width="44" height="43" viewBox="0 0 44 43" fill="none" xmlns="http://www.w3.org/2000/svg">
<path d="M0 21.2872V42.5742H22H44V21.2872V0.000145916H22H0V21.2872ZM42.6759 21.2872V41.2501H22H1.32407L1.26296 21.4909C1.24259 10.6131 1.26296 1.60941 1.32407 1.46681C1.38519 1.26311 5.64259 1.22237 22.0407 1.26311L42.6759 1.32422V21.2872Z" fill="white"/>
<path d="M18.5995 5.19387C14.281 6.17165 12.0199 9.77721 12.6514 14.6254C13.1403 18.455 14.1792 19.7994 18.8236 22.6717C22.0625 24.6476 23.2236 25.5846 23.2236 26.1754C23.2236 26.8476 21.7773 27.8865 18.5588 29.5161C14.3625 31.6346 13.6495 32.4698 14.0773 34.7513C14.3625 36.2383 15.0958 37.2161 16.1347 37.5013C17.5403 37.8679 19.8421 37.6235 22.1643 36.8291C26.2792 35.4031 29.2329 32.9587 30.7199 29.7402C31.4736 28.1309 31.5958 25.0346 30.9847 23.405C30.4143 21.9179 29.4569 20.8179 27.644 19.6161C25.5051 18.1902 24.4866 17.192 24.3236 16.3568C24.0588 14.9309 24.9347 14.2587 27.1143 14.2587C28.8866 14.2587 29.294 13.9939 30.068 12.2828C30.5977 11.1217 30.6995 10.6939 30.5773 10.2457C30.0273 8.31054 28.2551 6.64017 25.8106 5.70313C24.4051 5.13276 23.8143 5.03091 22.0014 4.9698C20.6162 4.92906 19.4143 4.99017 18.5995 5.19387ZM24.9143 6.74202C26.4625 7.27165 27.481 7.90313 28.3773 8.96239C29.3958 10.1642 29.4569 10.6124 28.7847 11.8754L28.2143 12.9346L26.4829 13.0365C24.568 13.1587 23.8143 13.505 23.3051 14.4828C22.9384 15.2161 22.9384 16.7642 23.3051 17.4976C23.7125 18.2717 25.1588 19.555 26.768 20.5735C29.3551 22.2031 30.3125 23.9957 30.0884 26.7661C29.7625 30.6365 26.4625 34.0179 21.3903 35.7291C19.6588 36.2994 17.744 36.5439 16.7255 36.2994C15.4218 36.0142 14.8106 33.855 15.7069 32.7142C15.9514 32.3883 17.3569 31.5531 19.0273 30.7179C23.5292 28.4568 24.4458 27.6624 24.4458 26.0124C24.4458 24.9124 23.3662 23.9346 19.5977 21.6124C16.1143 19.4531 15.1366 18.5568 14.444 16.7846C14.0569 15.7865 13.9755 15.1957 13.9755 13.2402C13.9551 11.0809 13.9958 10.8161 14.5255 9.73647C15.4625 7.82165 17.0921 6.70128 19.4958 6.31424C21.1051 6.0698 23.468 6.25313 24.9143 6.74202Z" fill="white"/>
</svg>
