<svg width="40" height="53" viewBox="0 0 40 53" fill="none" xmlns="http://www.w3.org/2000/svg">
<path d="M39.7977 0C39.8629 0.229537 39.8839 0.45907 39.884 0.688612C39.8873 8.99898 39.8914 17.3094 39.8895 25.6197C39.888 32.2017 37.9384 38.1147 33.7396 43.2223C30.2909 47.4173 26.0169 50.5457 21.0726 52.7601C20.3794 53.0705 19.5541 53.0829 18.8793 52.7786C11.8817 49.6237 6.2814 44.9128 2.73668 37.9922C1.32631 35.2386 0.470091 32.3024 0.179705 29.2112C0.147593 28.8693 0.0759606 28.5312 0.0113286 28.1474C-4.29072e-09 18.7426 0 9.38173 0 0C13.2479 0 26.4958 0 39.7977 0ZM30.6974 45.0372C32.0247 43.7519 33.2282 42.3603 34.279 40.8399C37.3715 36.3651 38.833 31.3789 38.8845 25.9665C38.9081 23.4917 38.8558 21.0161 38.8435 18.5412C38.8158 12.9379 38.8683 7.33427 38.8866 1.73075C38.8892 0.960158 38.885 0.956887 38.1243 0.956842C25.9559 0.956129 13.7876 0.959698 1.61926 0.945196C1.07318 0.944545 0.946025 1.12368 0.947255 1.63984C0.96308 8.28057 0.949943 14.9214 0.96403 21.5621C0.969395 24.0915 0.888391 26.621 1.17113 29.1475C1.72411 34.0887 3.60583 38.456 6.70179 42.322C10.1465 46.6235 14.495 49.7247 19.4897 51.9743C19.8462 52.1349 20.1387 52.0816 20.4705 51.9334C24.2564 50.2417 27.6577 47.9805 30.6974 45.0372Z" fill="white"/>
<path d="M9.75523 31.2123C9.75548 29.8494 9.77064 28.5438 9.74826 27.2389C9.74009 26.7621 9.96349 26.4882 10.3855 26.5827C12.0329 26.9517 13.5237 26.2679 15.063 25.9406C16.0168 25.7379 16.9681 25.7218 17.9249 25.784C18.6956 25.8341 18.6938 25.863 18.7775 24.9853C17.9313 24.7058 17.0283 24.6642 16.1571 24.4771C15.578 24.3528 15.3227 24.1221 15.4015 23.5109C15.4551 23.0953 15.4326 22.6665 15.4092 22.2455C15.3836 21.7837 15.5467 21.5838 16.0345 21.6054C16.7405 21.6368 17.449 21.6135 18.2159 21.6135C18.0795 21.0842 17.7306 20.726 17.6203 20.2644C17.5793 20.093 17.3887 20.0961 17.2327 20.0795C16.4901 20.0008 15.748 19.9172 15.006 19.833C14.7433 19.8031 14.481 19.7345 14.5013 19.4048C14.527 18.9895 14.2639 18.7849 13.9856 18.5722C13.2994 18.0478 12.6214 17.5127 11.9282 16.9978C11.6211 16.7697 11.5679 16.5728 11.8177 16.2449C12.0829 15.8968 12.2804 15.9692 12.5695 16.1987C13.3959 16.8549 14.2386 17.4907 15.0801 18.1277C15.2632 18.2663 15.4539 18.5184 15.7501 18.1228C15.1738 17.4813 14.5906 16.8283 14.0031 16.1794C13.4241 15.5398 13.4368 15.4539 14.2676 14.9676C15.0515 15.8311 15.8531 16.7028 16.6394 17.588C16.8537 17.8292 17.045 18.0079 17.3823 17.7047C17.1867 17.1235 16.7636 16.6473 16.4486 16.1114C16.3028 15.8633 16.157 15.6135 15.9886 15.3808C15.7781 15.0899 15.7926 14.8947 16.1203 14.6829C16.4645 14.4605 16.6542 14.5248 16.8593 14.8575C17.3528 15.6577 17.9025 16.4245 18.3705 17.2386C18.6308 17.6913 18.9587 17.5388 19.3107 17.4984C19.7139 17.4522 19.655 17.1569 19.6601 16.8946C19.6724 16.2613 19.6884 15.6279 19.6864 14.9945C19.6851 14.5984 19.8625 14.4612 20.2526 14.4685C20.6374 14.4757 20.7632 14.6517 20.7468 15.002C20.7191 15.5958 20.693 16.1899 20.6756 16.7841C20.6663 17.0998 20.5731 17.4411 21.0812 17.5123C21.526 17.5747 21.6928 17.4196 21.787 16.9995C21.9505 16.2712 22.175 15.5567 22.3749 14.8367C22.6053 14.0064 22.6058 14.0065 23.522 14.3725C23.2366 15.4776 22.9481 16.5943 22.6664 17.6847C23.2745 18.0686 23.5763 17.8755 23.8215 17.32C24.1385 16.6017 24.5468 15.9242 24.8906 15.2169C25.0619 14.8646 25.253 14.8589 25.5734 15.0262C25.8988 15.1962 25.9743 15.3699 25.798 15.7001C25.3485 16.5422 24.9216 17.3964 24.4908 18.2358C25.1656 18.7329 25.2004 18.7247 25.6946 18.1632C26.2017 17.5869 26.7293 17.0284 27.2292 16.4459C27.4763 16.158 27.671 16.1691 27.9429 16.418C28.2105 16.663 28.2494 16.8518 27.9908 17.1322C27.3535 17.8233 26.7418 18.5378 26.1137 19.2375C25.6842 19.7161 25.0817 19.7479 24.5043 19.8261C24.2391 19.862 23.9671 19.8448 23.7 19.8703C23.1644 19.9214 22.6548 19.9717 22.5451 20.6882C22.5034 20.9614 22.2384 21.2005 22.0742 21.4565C22.2606 21.7111 22.5105 21.5988 22.7215 21.6069C23.1815 21.6248 23.643 21.624 24.1032 21.6093C24.4511 21.5981 24.5766 21.7465 24.5752 22.0883C24.5727 22.6806 24.5407 23.2736 24.6759 23.863C24.7763 24.3004 24.3981 24.3666 24.1108 24.4298C23.438 24.578 22.7574 24.6909 22.0796 24.8162C21.2732 24.9653 21.2731 24.9644 21.518 25.8102C22.5121 25.7273 23.5222 25.6811 24.5206 25.8886C25.6456 26.1223 26.771 26.3541 27.8936 26.5988C28.4858 26.7279 29.076 26.689 29.6686 26.6283C30.1102 26.5831 30.3364 26.7148 30.3326 27.224C30.3139 29.7194 30.3292 32.2149 30.3225 34.7104C30.3205 35.4734 30.0156 35.7534 29.2571 35.8619C27.7469 36.0779 26.3361 35.6117 24.9017 35.2851C23.2878 34.9177 21.709 34.8554 20.2703 35.8808C20.1183 35.9891 19.9525 35.9766 19.7906 35.864C18.4244 34.9131 16.9111 34.9257 15.3743 35.2412C14.1352 35.4955 12.9032 35.7779 11.638 35.8724C11.4858 35.8837 11.3325 35.9161 11.1819 35.9062C9.99582 35.8277 9.75845 35.5715 9.75646 34.3797C9.75473 33.3431 9.75556 32.3065 9.75523 31.2123ZM29.3299 31.0396C29.3296 30.0808 29.3263 29.122 29.331 28.1632C29.3324 27.8865 29.3016 27.6611 28.9415 27.6712C27.4441 27.7133 26.0402 27.1977 24.5945 26.9324C23.4724 26.7264 22.3609 26.6134 21.2485 26.9969C20.862 27.1302 20.7209 27.3465 20.7252 27.7601C20.746 29.7542 20.7351 31.7486 20.7427 33.7428C20.7435 33.9419 20.6788 34.1683 20.9252 34.3745C22.9054 33.6876 24.853 34.1938 26.808 34.711C27.4546 34.8821 28.1297 34.9178 28.8059 34.8863C29.1951 34.8681 29.3419 34.7103 29.3354 34.3187C29.3178 33.2643 29.3297 32.2095 29.3299 31.0396ZM19.3629 32.6528C19.3592 31.0445 19.3453 29.4361 19.3585 27.8279C19.3621 27.3975 19.2051 27.1817 18.7929 27.0365C17.6259 26.6254 16.4555 26.7018 15.2796 26.9341C13.8958 27.2076 12.5648 27.7679 11.1159 27.6863C10.7404 27.6652 10.7528 27.9402 10.7528 28.1981C10.7531 30.2488 10.7614 32.2996 10.7455 34.3502C10.7423 34.7605 10.91 34.9197 11.2876 34.8838C11.8777 34.8277 12.469 34.7732 13.0546 34.684C14.4131 34.4769 15.7291 34.0136 17.1293 34.0501C17.8394 34.0686 18.5219 34.2401 19.2513 34.3781C19.4323 33.8285 19.3345 33.2919 19.3629 32.6528ZM21.2909 21.2021C21.2666 20.6285 21.2763 20.0508 21.2079 19.4826C21.1474 18.9804 20.851 18.6258 20.3045 18.604C19.8055 18.5841 19.3753 18.9616 19.265 19.5038C19.1506 20.0661 19.0664 20.6345 18.966 21.1996C18.9418 21.3356 18.9176 21.4657 19.055 21.5609C19.2278 21.6807 21.0834 21.6089 21.2396 21.4661C21.2753 21.4335 21.2729 21.3594 21.2909 21.2021ZM22.4032 23.3471C22.5758 23.3442 22.7508 23.3586 22.9204 23.3345C23.1888 23.2965 23.563 23.3587 23.5562 22.9332C23.5487 22.4553 23.146 22.6214 22.9006 22.6196C20.9635 22.6055 19.0264 22.6065 17.0893 22.6174C16.8673 22.6187 16.5055 22.4751 16.4632 22.8248C16.4201 23.1803 16.8209 23.0731 17.022 23.1766C17.0552 23.1936 17.0955 23.1979 17.1331 23.2052C18.8467 23.5419 20.5612 23.8457 22.4032 23.3471ZM19.754 25.6976C19.8336 25.8934 19.9502 26.0402 20.1872 25.953C20.3413 25.8963 20.4484 25.7846 20.4123 25.6003C20.3809 25.4396 20.3047 25.3043 20.1217 25.2917C19.8952 25.2761 19.7545 25.3761 19.754 25.6976Z" fill="white"/>
<path d="M13.2174 41.6058C14.2689 42.3853 15.2976 43.1254 16.4952 43.581C16.7447 43.676 17.0042 43.7548 17.266 43.8047C17.8115 43.9086 18.2069 43.6975 18.4104 43.1753C18.543 42.8352 18.6237 42.4835 18.6218 42.1111C18.6165 41.1131 18.6153 40.1147 18.6329 39.1168C18.6483 38.2357 19.0632 37.7798 19.8455 37.7399C20.8538 37.6884 21.3341 38.0383 21.3957 38.9954C21.4622 40.0284 21.4418 41.067 21.4556 42.1033C21.4592 42.3727 21.4809 42.6347 21.5597 42.8971C21.8229 43.7726 22.1738 44.0166 23.0474 43.7245C24.7176 43.1659 26.0635 42.023 27.6172 41.1997C27.347 40.7175 26.8626 40.5826 26.6034 40.1146C28.0917 39.1657 29.5644 38.2269 31.0782 37.2617C31.3943 37.9726 31.3536 38.5993 31.2669 39.2515C31.1422 40.1896 30.9642 41.1069 30.534 41.9551C30.2326 42.5493 29.8926 42.6619 29.3216 42.3126C28.9759 42.101 28.7713 42.1453 28.4797 42.4099C26.788 43.9455 25.0476 45.4228 23.1213 46.6648C22.4429 47.1022 21.7416 47.4956 21.0089 47.8354C20.2522 48.1863 19.5537 48.1045 18.8145 47.7155C16.2434 46.3623 14.0095 44.5573 11.8709 42.6219C11.4595 42.2496 11.1252 41.9772 10.5476 42.3814C10.1136 42.6851 9.74177 42.4027 9.51957 41.9799C9.14048 41.2587 8.93722 40.4769 8.84223 39.6752C8.78613 39.2018 8.66667 38.7314 8.71396 38.2462C8.7842 37.5256 9.13013 37.3488 9.72259 37.7325C10.7532 38.4 11.7868 39.0627 12.8187 39.7281C13.0103 39.8516 13.2238 39.9486 13.3653 40.1753C13.2135 40.5461 12.7814 40.6431 12.5138 41.0196C12.7319 41.2017 12.9586 41.391 13.2174 41.6058ZM22.5229 45.8472C23.1938 45.3708 23.9112 44.9538 24.5521 44.3089C24.0703 44.4678 23.6778 44.6164 23.2748 44.7268C21.8551 45.1158 20.8829 44.5511 20.5896 43.1123C20.336 41.8685 20.4583 40.5937 20.3793 39.3345C20.3636 39.0837 20.4508 38.7484 20.0272 38.7462C19.5902 38.744 19.6275 39.0799 19.6251 39.3631C19.6169 40.3407 19.6361 41.3188 19.6127 42.296C19.5633 44.3585 18.3826 45.214 16.4157 44.6323C16.1836 44.5636 15.9513 44.496 15.7191 44.4278C16.926 45.4864 18.3041 46.2644 19.7004 47.0102C19.9915 47.1657 20.3072 47.0506 20.5834 46.9049C21.2101 46.5743 21.8295 46.2299 22.5229 45.8472ZM29.7726 41.1529C30.056 40.4973 30.2149 39.8179 30.2616 38.9716C29.5438 39.4432 28.9526 39.8317 28.2892 40.2677C28.8008 40.6773 29.1325 41.1276 29.7726 41.1529ZM10.8455 39.6597C10.541 39.4769 10.2364 39.2941 9.83976 39.0561C9.81167 39.9221 10.0178 40.6057 10.3113 41.2618C11.0211 41.1708 11.23 40.5867 11.6766 40.2087C11.3898 40.0189 11.1523 39.8617 10.8455 39.6597Z" fill="white"/>
<path d="M11.2362 6.88046C10.7108 6.60835 10.7203 6.13069 10.6191 5.66424C11.101 5.58028 11.5408 5.42661 11.9665 5.75679C12.1253 5.88001 12.3365 5.82817 12.5264 5.83596C14.2745 5.90765 16.0058 5.72327 17.7353 5.50224C17.9378 5.47636 18.0696 5.41813 18.1978 5.23431C18.4813 4.82784 18.79 4.42252 19.2834 4.24363C19.5096 4.16162 19.453 3.98293 19.4891 3.82202C19.5928 3.36079 19.86 3.05815 20.3632 3.07701C20.8377 3.09478 21.1747 3.32748 21.2219 3.82795C21.2456 4.07974 21.3409 4.19211 21.5757 4.27019C21.7697 4.33467 21.9543 4.46049 22.1112 4.596C22.4454 4.88464 22.8167 5.01312 23.26 5.04644C23.811 5.08785 24.3631 5.1803 24.901 5.30831C25.2212 5.3845 25.3911 5.28735 25.5823 5.05283C26.0888 4.43149 27.7193 4.21061 28.396 4.64964C28.9546 5.01203 29.0668 6.35999 28.572 6.87594C27.9164 7.55975 27.1042 7.98835 26.1953 8.20675C25.2276 8.43928 24.3941 8.89193 23.5629 9.4347C23.1201 9.72385 22.5099 9.93148 21.8141 9.97018C21.6932 10.4546 21.2939 10.6523 20.6888 10.428C20.6199 10.4025 20.5359 10.4033 20.4607 10.4108C19.6263 10.4936 18.9337 10.2855 18.1321 9.90312C16.4517 9.10148 14.7251 8.36898 13.0137 7.61744C12.4393 7.36518 11.92 6.98557 11.2362 6.88046ZM22.7597 8.06986C22.9225 8.21631 23.0999 8.22057 23.2917 8.13128C24.44 7.59676 25.6492 7.22673 26.8446 6.81973C27.1799 6.70555 27.4526 6.49965 27.6988 6.25361C27.8497 6.1028 27.8982 5.91516 27.7997 5.72793C27.6787 5.49802 27.453 5.45051 27.2093 5.45579C26.9544 5.46131 26.9176 5.62724 26.8766 5.83501C26.7586 6.43341 26.3995 6.6859 25.8058 6.56045C25.5002 6.49587 25.2007 6.47834 24.8947 6.49038C24.0672 6.52294 23.2512 6.42967 22.4424 6.26543C21.8767 6.15054 21.338 6.01226 20.9531 5.50037C20.7041 5.16929 19.8807 5.2726 19.7225 5.6285C19.444 6.25559 18.954 6.4323 18.3075 6.50754C17.2049 6.63584 16.0966 6.78163 14.9481 7.14179C15.5119 7.41731 16.0191 7.61056 16.4666 7.89688C17.114 8.31097 17.8145 8.32754 18.5106 8.21893C19.0814 8.12986 19.3976 8.29579 19.5364 8.83723C19.6078 9.11587 19.707 9.32068 20.0676 9.30635C20.4153 9.29252 20.6923 9.2771 20.8133 8.86337C20.9534 8.38441 21.3424 8.18924 21.8201 8.14563C22.1049 8.11963 22.3888 8.08271 22.7597 8.06986Z" fill="white"/>
<path d="M22.5171 10.8043C22.1159 11.2005 21.8479 11.7108 21.2513 11.7944C21.7765 11.8303 21.7706 11.82 22.1782 11.5856C22.5663 11.3623 22.8061 11.7302 23.1054 11.8528C23.336 11.9472 23.3368 12.1304 23.2569 12.3316C23.1573 12.5821 23.0796 12.8345 22.7224 12.833C20.8473 12.8254 18.9722 12.8295 17.0614 12.8295C17.0527 12.4205 17.1076 12.0622 17.3628 11.7895C17.5819 11.5553 17.8205 11.3304 18.1741 11.6891C18.4745 11.9938 18.9074 11.7691 19.2852 11.822C18.4022 11.7334 18.0774 11.0487 17.669 10.4058C18.0184 10.2169 18.2906 10.3873 18.5378 10.4763C19.7439 10.9105 20.9511 10.7414 22.1667 10.5573C22.2917 10.5384 22.6535 10.3033 22.5171 10.8043Z" fill="white"/>
<path d="M13.7169 23.625C13.2719 23.552 12.8785 23.4627 12.4805 23.43C12.1102 23.3996 12.0031 23.2127 11.9834 22.8726C11.9101 21.6099 11.9026 21.6103 13.1803 21.6094C13.1994 21.6094 13.2186 21.6094 13.2377 21.6094C14.7984 21.6089 14.7801 21.6089 14.7842 23.1445C14.7856 23.6808 14.6132 23.8473 14.1073 23.6758C14.0011 23.6398 13.8805 23.6464 13.7169 23.625Z" fill="white"/>
<path d="M25.3885 23.6444C25.0952 21.6093 25.0952 21.6093 27.0731 21.6137C27.2452 21.614 27.4178 21.6237 27.5894 21.6148C27.9105 21.5981 28.0314 21.7513 28.0257 22.0625C27.9976 23.6 28.2345 23.3187 26.8253 23.5359C26.3611 23.6075 25.9056 23.7993 25.3885 23.6444Z" fill="white"/>
</svg>
