<svg width="46" height="46" viewBox="0 0 46 46" fill="none" xmlns="http://www.w3.org/2000/svg">
<path d="M35.3913 4.52218C35.3913 4.52218 36.8792 5.61852 37.7406 6.63656C39.5279 8.24543 40.9433 9.97199 42.2058 12.0391C43.9274 14.8579 45.0664 19.2446 45.1699 21.2029C45.1699 21.2029 45.2584 24.0215 45.0664 26.1418C44.821 27.9445 44.2863 29.6425 43.6049 31.3007C42.4025 34.227 40.1682 36.5512 38.5237 38.7439C38.3736 38.8912 37.4273 39.8403 37.4273 39.8403L36.6442 40.6234C36.0009 41.0802 35.588 41.5332 34.9192 41.9511C30.2982 44.8383 25.3092 45.9342 19.882 45.1936C17.8962 44.9226 15.9991 44.4227 14.1757 43.6618C11.2843 42.4552 8.81525 40.6295 6.63812 38.3651C4.83049 36.485 3.3996 34.3565 2.37357 31.9965C1.35226 29.6473 0.751741 27.1665 0.5983 24.5711C0.445532 21.987 0.634089 19.4526 1.33894 16.9772C2.44145 13.1053 4.43666 9.76703 7.34248 6.9358C11.037 3.33612 15.4529 1.33048 20.5144 0.701537C22.8388 0.412702 25.19 0.541612 27.4773 1.02037C30.8359 1.72335 32.6612 2.42128 35.3913 4.52218Z" stroke="white" stroke-width="1.09635" stroke-linecap="round" stroke-linejoin="round"/>
<path d="M37.5825 6.55768L34.7633 5.38303C34.7633 5.38303 31.2598 3.96925 28.7276 3.53673C26.877 3.22064 24.9854 3.26744 23.0926 3.48346C19.1762 3.93043 15.7364 5.48104 12.7778 7.99077C9.56714 10.7143 7.42979 14.191 6.4223 18.3062C5.88109 20.5168 5.7055 22.775 5.95538 25.0379C6.37234 28.814 7.73048 32.2402 10.1054 35.2114C12.4822 38.1848 15.4696 40.3094 19.0935 41.5841C21.8066 42.5384 24.5868 42.8734 27.399 42.6251C30.6413 42.3389 33.6716 41.2517 36.3985 39.4344L39.5403 37.3338" stroke="white" stroke-width="1.09635" stroke-linecap="round" stroke-linejoin="round"/>
<path d="M36.4869 14.3887C34.6706 15.4011 33.8281 17.712 33.0467 19.4031C32.1353 21.3759 31.2639 23.3673 30.3791 25.3524C29.1232 28.1703 27.8026 30.9584 26.582 33.7935C26.1318 34.8391 24.9844 36.8715 24.9844 36.8715" stroke="white" stroke-width="0.939728" stroke-linecap="round" stroke-linejoin="round"/>
<path d="M13.543 14.7812C15.409 15.8036 15.9541 17.7434 16.7409 19.4857C18.5681 23.5317 20.3414 27.6019 22.2289 31.6211C22.8449 32.9328 23.3746 34.2848 23.9632 35.6097C24.1783 36.0939 24.3822 36.5967 24.8197 36.9432" stroke="white" stroke-width="0.939728" stroke-linecap="round" stroke-linejoin="round"/>
<path d="M24.8189 14.3887C23.9314 14.4148 23.0301 14.3548 22.1607 14.4942C21.4658 14.6057 20.8711 15.1223 20.4731 15.6704C20.2605 15.9634 20.6224 16.4861 20.8095 16.9016C22.1438 19.8643 23.4068 22.8593 24.757 25.8145C25.1965 26.7766 26.2105 28.6587 26.2105 28.6587" stroke="white" stroke-width="1.09635" stroke-linecap="round" stroke-linejoin="round"/>
<path d="M31.0053 14.4668C31.0314 14.4929 31.4482 14.8331 31.4753 14.8582C32.541 15.8458 32.5369 15.8439 31.8675 17.2864C30.2205 20.8353 28.5778 24.3862 26.9328 27.9361C26.7951 28.2332 26.6175 28.4968 26.3066 28.641" stroke="white" stroke-width="1.09635" stroke-linecap="round" stroke-linejoin="round"/>
<path d="M37.9751 14.2448L36.0957 14.1643H34.2945C34.2945 14.1643 33.2243 14.1543 32.4934 14.1543L32.031 14.1643L29.5959 14.2326C29.5959 14.2326 28.1863 14.2587 27.873 14.2326" stroke="white" stroke-width="1.09635" stroke-linecap="round" stroke-linejoin="round"/>
<path d="M24.6633 14.3106L20.4345 14.3107C18.4509 14.3524 15.1877 14.3105 15.1877 14.3105C15.0579 14.3206 14.0913 14.3889 14.0913 14.3889C14.0913 14.3889 12.5895 14.4513 11.8203 14.4672" stroke="white" stroke-width="1.25297" stroke-linecap="round" stroke-linejoin="round"/>
</svg>
