<svg width="52" height="55" viewBox="0 0 52 55" fill="none" xmlns="http://www.w3.org/2000/svg">
<path d="M51.9994 49.558C51.9277 49.7892 51.8316 49.966 51.7881 50.1548C51.2837 52.3463 49.7116 53.7969 47.5179 54.0842C45.3385 54.3696 43.3729 53.3777 42.3687 51.486C41.0557 49.0124 41.8719 45.5739 44.092 44.2266C47.1377 42.3782 51.0652 44.0638 51.8065 47.538C51.8467 47.7261 51.8823 47.9152 51.9597 48.118C51.9994 48.591 51.9994 49.05 51.9994 49.558ZM43.3634 50.4735C44.3585 52.9016 47.4585 53.642 49.3779 51.8525C50.6568 50.6602 50.8625 49.1188 50.4298 47.4836C49.9755 45.7664 48.6193 44.8352 46.6636 44.8451C44.9628 44.8537 43.7027 45.8321 43.248 47.4958C42.9814 48.4714 43.0068 49.4374 43.3634 50.4735Z" fill="white"/>
<path d="M34.7679 5.04485C34.7679 21.1208 34.7679 37.1442 34.7679 53.1922C32.4478 53.1922 30.1728 53.1922 27.8519 53.1922C27.7745 51.7159 27.698 50.2561 27.6215 48.7963C27.5769 48.766 27.5322 48.7356 27.4876 48.7053C27.4302 48.8079 27.3887 48.9244 27.313 49.011C23.4458 53.4406 18.563 54.9519 12.8938 53.7694C7.73467 52.6933 4.10887 49.5346 2.05549 44.7408C-0.916202 37.8032 -0.664831 30.8739 2.80405 24.1661C6.02893 17.93 12.8322 14.6518 19.5976 15.8814C22.2772 16.3684 24.6328 17.475 26.5313 19.4689C26.5891 19.5297 26.6558 19.5819 26.7841 19.6971C26.7841 13.0899 26.7841 6.55817 26.7841 0C29.4603 0 32.0859 0 34.7679 0C34.7679 1.66687 34.7679 3.32953 34.7679 5.04485ZM25.9527 48.579C26.86 47.4146 27.7672 46.2502 28.7479 44.9916C28.8682 47.3704 28.9822 49.6253 29.0959 51.8741C30.5757 51.8741 32.0045 51.8741 33.424 51.8741C33.424 34.9899 33.424 18.1458 33.424 1.28778C31.6446 1.28778 29.8986 1.28778 28.0835 1.28778C28.0835 8.59863 28.0835 15.8811 28.0835 23.2675C27.5328 22.608 27.0683 22.0385 26.5896 21.4812C25.4148 20.1138 24.1369 18.8646 22.4529 18.1321C15.9868 15.3195 8.34897 17.7019 4.5965 23.6835C2.5198 26.9939 1.52804 30.6237 1.41283 34.5044C1.28438 38.8315 2.1554 42.9115 4.54835 46.5852C9.3559 53.9659 20.0675 55.0412 25.9527 48.579Z" fill="white"/>
<path d="M7.42941 40.2424C6.22564 35.0069 6.55169 29.9849 9.47531 25.4051C11.61 22.0612 14.8542 20.5596 18.782 20.8879C22.7109 21.2163 25.5454 23.3 27.2393 26.8772C27.8491 28.1648 28.1012 29.5399 28.1019 30.9621C28.1024 31.9274 28.015 32.9023 28.1206 33.8559C28.3296 35.7414 28.1557 37.6099 27.9576 39.4705C27.6229 42.6142 26.3559 45.3004 23.6105 47.0494C18.5771 50.2559 11.5768 49.3088 8.38147 42.7894C7.99062 41.9919 7.74936 41.1212 7.42941 40.2424ZM14.1267 46.7781C19.7067 49.0699 25.5814 45.9052 26.5402 40.0092C26.7989 38.4186 26.7455 36.7739 26.7899 35.1529C26.8268 33.8026 26.8414 32.4485 26.7811 31.0999C26.7414 30.213 26.6535 29.3035 26.4103 28.4549C25.4071 24.9543 22.4272 22.5392 18.5858 22.1767C15.4833 21.8838 12.0073 23.3242 10.1897 26.7222C7.69628 31.3837 7.44322 36.2738 9.14706 41.2365C9.99789 43.7146 11.6382 45.6044 14.1267 46.7781Z" fill="white"/>
</svg>
